<svg width="40" height="22" viewBox="0 0 40 22" fill="none" xmlns="http://www.w3.org/2000/svg">
<g clip-path="url(#clip0_650_1512)">
<path d="M27.02 -0.210937C24.364 -0.210937 21.924 0.722064 20 2.27106C18.0141 0.66428 15.5366 -0.211901 12.982 -0.210937C6.79904 -0.210937 1.76904 4.81706 1.76904 10.9991C1.76904 17.1821 6.79904 22.2111 12.982 22.2111C15.638 22.2111 18.077 21.2781 20 19.7281C21.9864 21.3357 24.4646 22.2123 27.02 22.2111C33.203 22.2111 38.232 17.1821 38.232 10.9991C38.231 4.81706 33.202 -0.210937 27.02 -0.210937ZM12.982 21.2771C7.31404 21.2771 2.70304 16.6661 2.70304 10.9991C2.70304 5.33306 7.31404 0.723063 12.982 0.723063C15.359 0.723063 17.544 1.54206 19.287 2.90206C17.149 4.94406 15.808 7.81506 15.808 10.9991C15.808 14.1831 17.148 17.0541 19.287 19.0971C17.4888 20.5092 15.2685 21.2769 12.982 21.2771ZM27.02 21.2771C24.642 21.2771 22.457 20.4581 20.713 19.0971C21.8115 18.0536 22.6861 16.7976 23.2839 15.4054C23.8816 14.0133 24.1899 12.5141 24.19 10.9991C24.19 7.81606 22.85 4.94506 20.713 2.90206C22.5117 1.48991 24.7323 0.722253 27.019 0.722064C32.686 0.722064 37.297 5.33206 37.297 10.9981C37.298 16.6661 32.687 21.2771 27.02 21.2771Z" fill="#7FE339"/>
</g>
<defs>
<clipPath id="clip0_650_1512">
<rect width="40" height="22" fill="white"/>
</clipPath>
</defs>
</svg>
