<svg width="25" height="24" viewBox="0 0 25 24" fill="none" xmlns="http://www.w3.org/2000/svg">
<g clip-path="url(#clip0_650_1756)">
<path d="M12.6666 2C18.1896 2 22.6666 6.477 22.6666 12C22.6666 17.523 18.1896 22 12.6666 22C7.14363 22 2.66663 17.523 2.66663 12C2.66663 6.477 7.14363 2 12.6666 2ZM11.9596 8.464L9.13063 11.293C8.94315 11.4805 8.83784 11.7348 8.83784 12C8.83784 12.2652 8.94315 12.5195 9.13063 12.707L11.9596 15.536C12.1472 15.7235 12.4015 15.8288 12.6666 15.8288C12.9318 15.8288 13.1861 15.7235 13.3736 15.536L16.2026 12.707C16.3901 12.5195 16.4954 12.2652 16.4954 12C16.4954 11.7348 16.3901 11.4805 16.2026 11.293L13.3736 8.464C13.1861 8.27653 12.9318 8.17121 12.6666 8.17121C12.4015 8.17121 12.1472 8.27653 11.9596 8.464Z" fill="#7FE339"/>
</g>
<defs>
<clipPath id="clip0_650_1756">
<rect width="24" height="24" fill="white" transform="translate(0.666626)"/>
</clipPath>
</defs>
</svg>
